  0
SECTION
  2
HEADER
  9
$ACADVER
  1
AC1009
  9
$INSUNITS
 70
     1
  0
ENDSEC
  0
SECTION
  2
TABLES
  0
TABLE
  2
LAYER
 70
     8
  0
LAYER
  2
0
 62
     7
 70
0
  6
CONTINUOUS
  0
LAYER
  2
1
 62
     1
 70
0
  6
CONTINUOUS
  0
LAYER
  2
2
 62
     2
 70
0
  6
CONTINUOUS
  0
LAYER
  2
3
 62
     3
 70
0
  6
CONTINUOUS
  0
LAYER
  2
4
 62
     4
 70
0
  6
CONTINUOUS
  0
LAYER
  2
5
 62
     5
 70
0
  6
CONTINUOUS
  0
LAYER
  2
6
 62
     6
 70
0
  6
CONTINUOUS
  0
LAYER
  2
7
 62
     7
 70
0
  6
CONTINUOUS
  0
ENDTAB
  0
TABLE
  2
STYLE
 70
     1
  0
STYLE
 70
     0
  2
STANDARD
  3
TXT
 40
0.00
 41
1.00
 42
1.00
 50
0.00
 71
     0
  0
ENDTAB
  0
ENDSEC
  0
SECTION
  2
BLOCKS
  0
BLOCK
  8
0
  2
EPAD
 70
0
 10
0.0
 20
0.0
  0
POLYLINE
  8
0
 66
1
 70
1
 40
0.5
 41
0.5
  0
VERTEX
  8
0
 10
-0.25
 20
0.0
 42
1.0
  0
VERTEX
  8
0
 10
0.25
 20
0.0
 42
1.0
  0
SEQEND
  8
0
  0
ENDBLK
  8
0
  0
BLOCK
  8
0
  2
RPAD
 70
0
 10
0.0
 20
0.0
  0
TRACE
  8
0
 10
-0.5
 20
-0.5
 11
-0.5
 21
0.5
 12
0.5
 22
-0.5
 13
0.5
 23
0.5
  0
ENDBLK
  8
0
  0
ENDSEC
0
SECTION
2
ENTITIES
0
POLYLINE
8
0
66
1
40
0.016000
41
0.016000
0
VERTEX
8
0
10
0.810000
20
1.550000
0
VERTEX
8
0
10
2.600000
20
1.550000
0
VERTEX
8
0
10
2.600000
20
1.900000
0
VERTEX
8
0
10
2.700000
20
1.900000
0
SEQEND
8
0
0
POLYLINE
8
0
66
1
40
0.016000
41
0.016000
0
VERTEX
8
0
10
2.700000
20
1.700000
0
VERTEX
8
0
10
2.700000
20
0.900000
0
VERTEX
8
0
10
2.900000
20
0.900000
0
VERTEX
8
0
10
2.900000
20
0.800000
0
SEQEND
8
0
0
POLYLINE
8
0
66
1
40
0.016000
41
0.016000
0
VERTEX
8
0
10
-1.530000
20
0.450000
0
VERTEX
8
0
10
0.670000
20
0.450000
0
VERTEX
8
0
10
0.670000
20
2.600000
0
VERTEX
8
0
10
-1.530000
20
2.600000
0
VERTEX
8
0
10
-1.530000
20
0.450000
0
SEQEND
8
0
0
POLYLINE
8
0
66
1
40
0.016000
41
0.016000
0
VERTEX
8
0
10
-0.130000
20
2.300000
0
VERTEX
8
0
10
0.370000
20
2.300000
0
VERTEX
8
0
10
0.370000
20
2.900000
0
VERTEX
8
0
10
-0.130000
20
2.900000
0
VERTEX
8
0
10
-0.130000
20
2.300000
0
SEQEND
8
0
0
POLYLINE
8
0
66
1
40
0.016000
41
0.016000
0
VERTEX
8
0
10
-1.150000
20
2.170000
0
VERTEX
8
0
10
-0.800000
20
2.170000
0
VERTEX
8
0
10
-0.800000
20
2.770000
0
VERTEX
8
0
10
-1.150000
20
2.770000
0
VERTEX
8
0
10
-1.150000
20
2.170000
0
SEQEND
8
0
0
POLYLINE
8
0
66
1
40
0.016000
41
0.016000
0
VERTEX
8
0
10
-0.730000
20
0.450000
0
VERTEX
8
0
10
-0.400000
20
0.450000
0
VERTEX
8
0
10
-0.400000
20
1.900000
0
VERTEX
8
0
10
-0.730000
20
1.900000
0
VERTEX
8
0
10
-0.730000
20
0.450000
0
SEQEND
8
0
0
POLYLINE
8
0
66
1
40
0.016000
41
0.016000
0
VERTEX
8
0
10
-0.160000
20
1.880000
0
VERTEX
8
0
10
-0.160000
20
0.580000
0
SEQEND
8
0
0
POLYLINE
8
0
66
1
40
0.016000
41
0.016000
0
VERTEX
8
0
10
-0.830000
20
0.650000
0
VERTEX
8
0
10
-0.830000
20
1.050000
0
SEQEND
8
0
0
TEXT
8
0
10
-1.028000
20
1.410000
40
0.096000
41
0.833333
50
-90.000000
1
ANALOG IN
0
TEXT
8
0
10
-0.512000
20
0.640000
40
0.056000
41
1.428571
50
90.000000
1
ATMEGA328P-PU
0
TEXT
8
0
10
-0.562000
20
1.150000
40
0.056000
41
1.428571
50
90.000000
1
1121
0
POLYLINE
8
0
66
1
40
0.016000
41
0.016000
0
VERTEX
8
0
10
-0.400000
20
1.800000
0
VERTEX
8
0
10
-0.350000
20
1.800000
0
VERTEX
8
0
10
-0.350000
20
1.850000
0
VERTEX
8
0
10
-0.400000
20
1.850000
0
VERTEX
8
0
10
-0.400000
20
1.800000
0
SEQEND
8
0
0
POLYLINE
8
0
66
1
40
0.016000
41
0.016000
0
VERTEX
8
0
10
-0.400000
20
1.700000
0
VERTEX
8
0
10
-0.350000
20
1.700000
0
VERTEX
8
0
10
-0.350000
20
1.750000
0
VERTEX
8
0
10
-0.400000
20
1.750000
0
VERTEX
8
0
10
-0.400000
20
1.700000
0
SEQEND
8
0
0
POLYLINE
8
0
66
1
40
0.016000
41
0.016000
0
VERTEX
8
0
10
-0.400000
20
1.600000
0
VERTEX
8
0
10
-0.350000
20
1.600000
0
VERTEX
8
0
10
-0.350000
20
1.650000
0
VERTEX
8
0
10
-0.400000
20
1.650000
0
VERTEX
8
0
10
-0.400000
20
1.600000
0
SEQEND
8
0
0
POLYLINE
8
0
66
1
40
0.016000
41
0.016000
0
VERTEX
8
0
10
-0.400000
20
1.500000
0
VERTEX
8
0
10
-0.350000
20
1.500000
0
VERTEX
8
0
10
-0.350000
20
1.550000
0
VERTEX
8
0
10
-0.400000
20
1.550000
0
VERTEX
8
0
10
-0.400000
20
1.500000
0
SEQEND
8
0
0
POLYLINE
8
0
66
1
40
0.016000
41
0.016000
0
VERTEX
8
0
10
-0.400000
20
1.400000
0
VERTEX
8
0
10
-0.350000
20
1.400000
0
VERTEX
8
0
10
-0.350000
20
1.450000
0
VERTEX
8
0
10
-0.400000
20
1.450000
0
VERTEX
8
0
10
-0.400000
20
1.400000
0
SEQEND
8
0
0
POLYLINE
8
0
66
1
40
0.016000
41
0.016000
0
VERTEX
8
0
10
-0.400000
20
1.300000
0
VERTEX
8
0
10
-0.350000
20
1.300000
0
VERTEX
8
0
10
-0.350000
20
1.350000
0
VERTEX
8
0
10
-0.400000
20
1.350000
0
VERTEX
8
0
10
-0.400000
20
1.300000
0
SEQEND
8
0
0
POLYLINE
8
0
66
1
40
0.016000
41
0.016000
0
VERTEX
8
0
10
-0.400000
20
1.200000
0
VERTEX
8
0
10
-0.350000
20
1.200000
0
VERTEX
8
0
10
-0.350000
20
1.250000
0
VERTEX
8
0
10
-0.400000
20
1.250000
0
VERTEX
8
0
10
-0.400000
20
1.200000
0
SEQEND
8
0
0
POLYLINE
8
0
66
1
40
0.016000
41
0.016000
0
VERTEX
8
0
10
-0.400000
20
1.100000
0
VERTEX
8
0
10
-0.350000
20
1.100000
0
VERTEX
8
0
10
-0.350000
20
1.150000
0
VERTEX
8
0
10
-0.400000
20
1.150000
0
VERTEX
8
0
10
-0.400000
20
1.100000
0
SEQEND
8
0
0
POLYLINE
8
0
66
1
40
0.016000
41
0.016000
0
VERTEX
8
0
10
-0.400000
20
1.000000
0
VERTEX
8
0
10
-0.350000
20
1.000000
0
VERTEX
8
0
10
-0.350000
20
1.050000
0
VERTEX
8
0
10
-0.400000
20
1.050000
0
VERTEX
8
0
10
-0.400000
20
1.000000
0
SEQEND
8
0
0
POLYLINE
8
0
66
1
40
0.016000
41
0.016000
0
VERTEX
8
0
10
-0.400000
20
0.900000
0
VERTEX
8
0
10
-0.350000
20
0.900000
0
VERTEX
8
0
10
-0.350000
20
0.950000
0
VERTEX
8
0
10
-0.400000
20
0.950000
0
VERTEX
8
0
10
-0.400000
20
0.900000
0
SEQEND
8
0
0
POLYLINE
8
0
66
1
40
0.016000
41
0.016000
0
VERTEX
8
0
10
-0.400000
20
0.800000
0
VERTEX
8
0
10
-0.350000
20
0.800000
0
VERTEX
8
0
10
-0.350000
20
0.850000
0
VERTEX
8
0
10
-0.400000
20
0.850000
0
VERTEX
8
0
10
-0.400000
20
0.800000
0
SEQEND
8
0
0
POLYLINE
8
0
66
1
40
0.016000
41
0.016000
0
VERTEX
8
0
10
-0.400000
20
0.700000
0
VERTEX
8
0
10
-0.350000
20
0.700000
0
VERTEX
8
0
10
-0.350000
20
0.750000
0
VERTEX
8
0
10
-0.400000
20
0.750000
0
VERTEX
8
0
10
-0.400000
20
0.700000
0
SEQEND
8
0
0
POLYLINE
8
0
66
1
40
0.016000
41
0.016000
0
VERTEX
8
0
10
-0.400000
20
0.600000
0
VERTEX
8
0
10
-0.350000
20
0.600000
0
VERTEX
8
0
10
-0.350000
20
0.650000
0
VERTEX
8
0
10
-0.400000
20
0.650000
0
VERTEX
8
0
10
-0.400000
20
0.600000
0
SEQEND
8
0
0
POLYLINE
8
0
66
1
40
0.016000
41
0.016000
0
VERTEX
8
0
10
-0.400000
20
0.500000
0
VERTEX
8
0
10
-0.350000
20
0.500000
0
VERTEX
8
0
10
-0.350000
20
0.550000
0
VERTEX
8
0
10
-0.400000
20
0.550000
0
VERTEX
8
0
10
-0.400000
20
0.500000
0
SEQEND
8
0
0
TEXT
8
0
10
-0.140000
20
1.706000
40
0.088000
41
0.909091
1
~
0
TEXT
8
0
10
-0.040000
20
1.611000
40
0.088000
41
0.909091
1
~
0
TEXT
8
0
10
0.080000
20
1.506000
40
0.088000
41
0.909091
1
~
0
TEXT
8
0
10
0.120000
20
1.106000
40
0.088000
41
0.909091
1
~
0
TEXT
8
0
10
0.190000
20
1.016000
40
0.088000
41
0.909091
1
~
0
TEXT
8
0
10
0.120000
20
0.796000
40
0.088000
41
0.909091
1
~
0
POLYLINE
8
0
66
1
40
0.016000
41
0.016000
0
VERTEX
8
0
10
-0.160000
20
1.880000
0
VERTEX
8
0
10
-0.110000
20
1.930000
0
SEQEND
8
0
0
POLYLINE
8
0
66
1
40
0.016000
41
0.016000
0
VERTEX
8
0
10
-0.160000
20
0.580000
0
VERTEX
8
0
10
-0.110000
20
0.530000
0
SEQEND
8
0
0
POLYLINE
8
0
66
1
40
0.016000
41
0.016000
0
VERTEX
8
0
10
-0.830000
20
1.050000
0
VERTEX
8
0
10
-0.880000
20
1.100000
0
SEQEND
8
0
0
POLYLINE
8
0
66
1
40
0.016000
41
0.016000
0
VERTEX
8
0
10
-0.830000
20
0.650000
0
VERTEX
8
0
10
-0.830000
20
0.600000
0
VERTEX
8
0
10
-0.880000
20
0.550000
0
SEQEND
8
0
0
POLYLINE
8
0
66
1
40
0.016000
41
0.016000
0
VERTEX
8
0
10
-0.780000
20
1.790000
0
VERTEX
8
0
10
-0.730000
20
1.790000
0
VERTEX
8
0
10
-0.730000
20
1.840000
0
VERTEX
8
0
10
-0.780000
20
1.840000
0
VERTEX
8
0
10
-0.780000
20
1.790000
0
SEQEND
8
0
0
POLYLINE
8
0
66
1
40
0.016000
41
0.016000
0
VERTEX
8
0
10
-0.780000
20
1.690000
0
VERTEX
8
0
10
-0.730000
20
1.690000
0
VERTEX
8
0
10
-0.730000
20
1.740000
0
VERTEX
8
0
10
-0.780000
20
1.740000
0
VERTEX
8
0
10
-0.780000
20
1.690000
0
SEQEND
8
0
0
POLYLINE
8
0
66
1
40
0.016000
41
0.016000
0
VERTEX
8
0
10
-0.780000
20
1.590000
0
VERTEX
8
0
10
-0.730000
20
1.590000
0
VERTEX
8
0
10
-0.730000
20
1.640000
0
VERTEX
8
0
10
-0.780000
20
1.640000
0
VERTEX
8
0
10
-0.780000
20
1.590000
0
SEQEND
8
0
0
POLYLINE
8
0
66
1
40
0.016000
41
0.016000
0
VERTEX
8
0
10
-0.780000
20
1.490000
0
VERTEX
8
0
10
-0.730000
20
1.490000
0
VERTEX
8
0
10
-0.730000
20
1.540000
0
VERTEX
8
0
10
-0.780000
20
1.540000
0
VERTEX
8
0
10
-0.780000
20
1.490000
0
SEQEND
8
0
0
POLYLINE
8
0
66
1
40
0.016000
41
0.016000
0
VERTEX
8
0
10
-0.780000
20
1.390000
0
VERTEX
8
0
10
-0.730000
20
1.390000
0
VERTEX
8
0
10
-0.730000
20
1.440000
0
VERTEX
8
0
10
-0.780000
20
1.440000
0
VERTEX
8
0
10
-0.780000
20
1.390000
0
SEQEND
8
0
0
POLYLINE
8
0
66
1
40
0.016000
41
0.016000
0
VERTEX
8
0
10
-0.780000
20
1.290000
0
VERTEX
8
0
10
-0.730000
20
1.290000
0
VERTEX
8
0
10
-0.730000
20
1.340000
0
VERTEX
8
0
10
-0.780000
20
1.340000
0
VERTEX
8
0
10
-0.780000
20
1.290000
0
SEQEND
8
0
0
POLYLINE
8
0
66
1
40
0.016000
41
0.016000
0
VERTEX
8
0
10
-0.780000
20
1.190000
0
VERTEX
8
0
10
-0.730000
20
1.190000
0
VERTEX
8
0
10
-0.730000
20
1.240000
0
VERTEX
8
0
10
-0.780000
20
1.240000
0
VERTEX
8
0
10
-0.780000
20
1.190000
0
SEQEND
8
0
0
POLYLINE
8
0
66
1
40
0.016000
41
0.016000
0
VERTEX
8
0
10
-0.780000
20
1.090000
0
VERTEX
8
0
10
-0.730000
20
1.090000
0
VERTEX
8
0
10
-0.730000
20
1.140000
0
VERTEX
8
0
10
-0.780000
20
1.140000
0
VERTEX
8
0
10
-0.780000
20
1.090000
0
SEQEND
8
0
0
POLYLINE
8
0
66
1
40
0.016000
41
0.016000
0
VERTEX
8
0
10
-0.780000
20
0.990000
0
VERTEX
8
0
10
-0.730000
20
0.990000
0
VERTEX
8
0
10
-0.730000
20
1.040000
0
VERTEX
8
0
10
-0.780000
20
1.040000
0
VERTEX
8
0
10
-0.780000
20
0.990000
0
SEQEND
8
0
0
POLYLINE
8
0
66
1
40
0.016000
41
0.016000
0
VERTEX
8
0
10
-0.780000
20
0.890000
0
VERTEX
8
0
10
-0.730000
20
0.890000
0
VERTEX
8
0
10
-0.730000
20
0.940000
0
VERTEX
8
0
10
-0.780000
20
0.940000
0
VERTEX
8
0
10
-0.780000
20
0.890000
0
SEQEND
8
0
0
POLYLINE
8
0
66
1
40
0.016000
41
0.016000
0
VERTEX
8
0
10
-0.780000
20
0.790000
0
VERTEX
8
0
10
-0.730000
20
0.790000
0
VERTEX
8
0
10
-0.730000
20
0.840000
0
VERTEX
8
0
10
-0.780000
20
0.840000
0
VERTEX
8
0
10
-0.780000
20
0.790000
0
SEQEND
8
0
0
POLYLINE
8
0
66
1
40
0.016000
41
0.016000
0
VERTEX
8
0
10
-0.780000
20
0.690000
0
VERTEX
8
0
10
-0.730000
20
0.690000
0
VERTEX
8
0
10
-0.730000
20
0.740000
0
VERTEX
8
0
10
-0.780000
20
0.740000
0
VERTEX
8
0
10
-0.780000
20
0.690000
0
SEQEND
8
0
0
POLYLINE
8
0
66
1
40
0.016000
41
0.016000
0
VERTEX
8
0
10
-0.780000
20
0.590000
0
VERTEX
8
0
10
-0.730000
20
0.590000
0
VERTEX
8
0
10
-0.730000
20
0.640000
0
VERTEX
8
0
10
-0.780000
20
0.640000
0
VERTEX
8
0
10
-0.780000
20
0.590000
0
SEQEND
8
0
0
POLYLINE
8
0
66
1
40
0.016000
41
0.016000
0
VERTEX
8
0
10
-0.780000
20
0.490000
0
VERTEX
8
0
10
-0.730000
20
0.490000
0
VERTEX
8
0
10
-0.730000
20
0.540000
0
VERTEX
8
0
10
-0.780000
20
0.540000
0
VERTEX
8
0
10
-0.780000
20
0.490000
0
SEQEND
8
0
0
TEXT
8
0
10
0.030000
20
0.610000
40
0.080000
41
1.000000
1
TX
0
TEXT
8
0
10
0.030000
20
0.510000
40
0.080000
41
1.000000
1
RX
0
POLYLINE
8
0
66
1
40
0.016000
41
0.016000
0
VERTEX
8
0
10
-1.410000
20
2.120000
0
VERTEX
8
0
10
-1.200000
20
2.120000
0
VERTEX
8
0
10
-1.200000
20
2.480000
0
VERTEX
8
0
10
-1.410000
20
2.480000
0
VERTEX
8
0
10
-1.410000
20
2.120000
0
SEQEND
8
0
0
CIRCLE
8
0
10
-1.300000
20
2.320000
40
0.060828
0
TEXT
8
0
10
-1.518000
20
2.660000
40
0.096000
41
0.833333
50
-90.000000
1
Reset BTN
0
POLYLINE
8
0
66
1
40
0.100000
41
0.100000
0
VERTEX
8
0
10
-0.250000
20
2.490000
0
VERTEX
8
0
10
-0.620000
20
2.490000
0
SEQEND
8
0
0
POLYLINE
8
0
66
1
40
0.016000
41
0.016000
0
VERTEX
8
0
10
-0.520000
20
2.450000
0
VERTEX
8
0
10
-0.340000
20
2.450000
0
VERTEX
8
0
10
-0.340000
20
2.530000
0
VERTEX
8
0
10
-0.520000
20
2.530000
0
VERTEX
8
0
10
-0.520000
20
2.450000
0
SEQEND
8
0
0
TEXT
8
0
10
-0.768000
20
2.570000
40
0.096000
41
0.833333
50
-90.000000
1
ON
0
POLYLINE
8
0
66
1
40
0.016000
41
0.016000
0
VERTEX
8
0
10
-1.060000
20
1.540000
0
VERTEX
8
0
10
-0.920000
20
1.540000
0
VERTEX
8
0
10
-0.920000
20
1.890000
0
VERTEX
8
0
10
-1.060000
20
1.890000
0
VERTEX
8
0
10
-1.060000
20
1.540000
0
SEQEND
8
0
0
POLYLINE
8
0
66
1
40
0.016000
41
0.016000
0
VERTEX
8
0
10
-1.070000
20
1.540000
0
VERTEX
8
0
10
-0.920000
20
1.540000
0
VERTEX
8
0
10
-0.920000
20
1.600000
0
VERTEX
8
0
10
-1.070000
20
1.600000
0
VERTEX
8
0
10
-1.070000
20
1.540000
0
SEQEND
8
0
0
POLYLINE
8
0
66
1
40
0.016000
41
0.016000
0
VERTEX
8
0
10
-1.010000
20
1.900000
0
VERTEX
8
0
10
-0.970000
20
1.900000
0
VERTEX
8
0
10
-0.970000
20
2.080000
0
VERTEX
8
0
10
-1.010000
20
2.080000
0
VERTEX
8
0
10
-1.010000
20
1.900000
0
SEQEND
8
0
0
POLYLINE
8
0
66
1
40
0.016000
41
0.016000
0
VERTEX
8
0
10
-1.010000
20
1.360000
0
VERTEX
8
0
10
-0.970000
20
1.360000
0
VERTEX
8
0
10
-0.970000
20
1.540000
0
VERTEX
8
0
10
-1.010000
20
1.540000
0
VERTEX
8
0
10
-1.010000
20
1.360000
0
SEQEND
8
0
0
POLYLINE
8
0
66
1
40
0.018000
41
0.018000
0
VERTEX
8
0
10
-0.420000
20
2.200000
0
VERTEX
8
0
10
-0.400000
20
2.180000
0
SEQEND
8
0
0
POLYLINE
8
0
66
1
40
0.018000
41
0.018000
0
VERTEX
8
0
10
-0.440000
20
2.180000
0
VERTEX
8
0
10
-0.420000
20
2.160000
0
SEQEND
8
0
0
POLYLINE
8
0
66
1
40
0.018000
41
0.018000
0
VERTEX
8
0
10
-0.460000
20
2.160000
0
VERTEX
8
0
10
-0.440000
20
2.140000
0
SEQEND
8
0
0
POLYLINE
8
0
66
1
40
0.018000
41
0.018000
0
VERTEX
8
0
10
-0.480000
20
2.140000
0
VERTEX
8
0
10
-0.460000
20
2.120000
0
SEQEND
8
0
0
POLYLINE
8
0
66
1
40
0.018000
41
0.018000
0
VERTEX
8
0
10
-0.500000
20
2.120000
0
VERTEX
8
0
10
-0.480000
20
2.100000
0
SEQEND
8
0
0
POLYLINE
8
0
66
1
40
0.018000
41
0.018000
0
VERTEX
8
0
10
-0.520000
20
2.100000
0
VERTEX
8
0
10
-0.500000
20
2.080000
0
SEQEND
8
0
0
POLYLINE
8
0
66
1
40
0.018000
41
0.018000
0
VERTEX
8
0
10
-0.540000
20
2.080000
0
VERTEX
8
0
10
-0.520000
20
2.060000
0
SEQEND
8
0
0
POLYLINE
8
0
66
1
40
0.018000
41
0.018000
0
VERTEX
8
0
10
-0.560000
20
2.060000
0
VERTEX
8
0
10
-0.540000
20
2.040000
0
SEQEND
8
0
0
POLYLINE
8
0
66
1
40
0.018000
41
0.018000
0
VERTEX
8
0
10
-0.590000
20
2.370000
0
VERTEX
8
0
10
-0.570000
20
2.350000
0
SEQEND
8
0
0
POLYLINE
8
0
66
1
40
0.018000
41
0.018000
0
VERTEX
8
0
10
-0.610000
20
2.350000
0
VERTEX
8
0
10
-0.590000
20
2.330000
0
SEQEND
8
0
0
POLYLINE
8
0
66
1
40
0.018000
41
0.018000
0
VERTEX
8
0
10
-0.630000
20
2.330000
0
VERTEX
8
0
10
-0.610000
20
2.310000
0
SEQEND
8
0
0
POLYLINE
8
0
66
1
40
0.018000
41
0.018000
0
VERTEX
8
0
10
-0.650000
20
2.310000
0
VERTEX
8
0
10
-0.630000
20
2.290000
0
SEQEND
8
0
0
POLYLINE
8
0
66
1
40
0.018000
41
0.018000
0
VERTEX
8
0
10
-0.670000
20
2.290000
0
VERTEX
8
0
10
-0.650000
20
2.270000
0
SEQEND
8
0
0
POLYLINE
8
0
66
1
40
0.018000
41
0.018000
0
VERTEX
8
0
10
-0.690000
20
2.270000
0
VERTEX
8
0
10
-0.670000
20
2.250000
0
SEQEND
8
0
0
POLYLINE
8
0
66
1
40
0.018000
41
0.018000
0
VERTEX
8
0
10
-0.710000
20
2.250000
0
VERTEX
8
0
10
-0.690000
20
2.230000
0
SEQEND
8
0
0
POLYLINE
8
0
66
1
40
0.018000
41
0.018000
0
VERTEX
8
0
10
-0.730000
20
2.230000
0
VERTEX
8
0
10
-0.710000
20
2.210000
0
SEQEND
8
0
0
POLYLINE
8
0
66
1
40
0.018000
41
0.018000
0
VERTEX
8
0
10
-0.590000
20
2.040000
0
VERTEX
8
0
10
-0.570000
20
2.060000
0
SEQEND
8
0
0
POLYLINE
8
0
66
1
40
0.018000
41
0.018000
0
VERTEX
8
0
10
-0.610000
20
2.060000
0
VERTEX
8
0
10
-0.590000
20
2.080000
0
SEQEND
8
0
0
POLYLINE
8
0
66
1
40
0.018000
41
0.018000
0
VERTEX
8
0
10
-0.630000
20
2.080000
0
VERTEX
8
0
10
-0.610000
20
2.100000
0
SEQEND
8
0
0
POLYLINE
8
0
66
1
40
0.018000
41
0.018000
0
VERTEX
8
0
10
-0.650000
20
2.100000
0
VERTEX
8
0
10
-0.630000
20
2.120000
0
SEQEND
8
0
0
POLYLINE
8
0
66
1
40
0.018000
41
0.018000
0
VERTEX
8
0
10
-0.670000
20
2.120000
0
VERTEX
8
0
10
-0.650000
20
2.140000
0
SEQEND
8
0
0
POLYLINE
8
0
66
1
40
0.018000
41
0.018000
0
VERTEX
8
0
10
-0.690000
20
2.140000
0
VERTEX
8
0
10
-0.670000
20
2.160000
0
SEQEND
8
0
0
POLYLINE
8
0
66
1
40
0.018000
41
0.018000
0
VERTEX
8
0
10
-0.710000
20
2.160000
0
VERTEX
8
0
10
-0.690000
20
2.180000
0
SEQEND
8
0
0
POLYLINE
8
0
66
1
40
0.018000
41
0.018000
0
VERTEX
8
0
10
-0.730000
20
2.180000
0
VERTEX
8
0
10
-0.710000
20
2.200000
0
SEQEND
8
0
0
POLYLINE
8
0
66
1
40
0.018000
41
0.018000
0
VERTEX
8
0
10
-0.420000
20
2.210000
0
VERTEX
8
0
10
-0.400000
20
2.230000
0
SEQEND
8
0
0
POLYLINE
8
0
66
1
40
0.018000
41
0.018000
0
VERTEX
8
0
10
-0.440000
20
2.230000
0
VERTEX
8
0
10
-0.420000
20
2.250000
0
SEQEND
8
0
0
POLYLINE
8
0
66
1
40
0.018000
41
0.018000
0
VERTEX
8
0
10
-0.460000
20
2.250000
0
VERTEX
8
0
10
-0.440000
20
2.270000
0
SEQEND
8
0
0
POLYLINE
8
0
66
1
40
0.018000
41
0.018000
0
VERTEX
8
0
10
-0.480000
20
2.270000
0
VERTEX
8
0
10
-0.460000
20
2.290000
0
SEQEND
8
0
0
POLYLINE
8
0
66
1
40
0.018000
41
0.018000
0
VERTEX
8
0
10
-0.500000
20
2.290000
0
VERTEX
8
0
10
-0.480000
20
2.310000
0
SEQEND
8
0
0
POLYLINE
8
0
66
1
40
0.018000
41
0.018000
0
VERTEX
8
0
10
-0.520000
20
2.310000
0
VERTEX
8
0
10
-0.500000
20
2.330000
0
SEQEND
8
0
0
POLYLINE
8
0
66
1
40
0.018000
41
0.018000
0
VERTEX
8
0
10
-0.540000
20
2.330000
0
VERTEX
8
0
10
-0.520000
20
2.350000
0
SEQEND
8
0
0
POLYLINE
8
0
66
1
40
0.018000
41
0.018000
0
VERTEX
8
0
10
-0.560000
20
2.350000
0
VERTEX
8
0
10
-0.540000
20
2.370000
0
SEQEND
8
0
0
POLYLINE
8
0
66
1
40
0.016000
41
0.016000
0
VERTEX
8
0
10
-0.560000
20
2.370000
0
VERTEX
8
0
10
-0.400000
20
2.210000
0
VERTEX
8
0
10
-0.570000
20
2.040000
0
VERTEX
8
0
10
-0.730000
20
2.200000
0
VERTEX
8
0
10
-0.560000
20
2.370000
0
SEQEND
8
0
0
CIRCLE
8
0
10
-0.570000
20
2.090000
40
0.012426
0
POLYLINE
8
0
66
1
40
0.010000
41
0.010000
0
VERTEX
8
0
10
0.580000
20
1.400000
0
VERTEX
8
0
10
0.660000
20
1.400000
0
VERTEX
8
0
10
0.660000
20
2.200000
0
VERTEX
8
0
10
0.580000
20
2.200000
0
VERTEX
8
0
10
0.580000
20
1.400000
0
SEQEND
8
0
0
CIRCLE
8
0
10
-0.560000
20
0.690000
40
0.042426
0
POLYLINE
8
0
66
1
40
0.016000
41
0.016000
0
VERTEX
8
0
10
0.600000
20
2.130000
0
VERTEX
8
0
10
0.640000
20
2.130000
0
VERTEX
8
0
10
0.640000
20
2.170000
0
VERTEX
8
0
10
0.600000
20
2.170000
0
VERTEX
8
0
10
0.600000
20
2.130000
0
SEQEND
8
0
0
POLYLINE
8
0
66
1
40
0.016000
41
0.016000
0
VERTEX
8
0
10
0.600000
20
1.930000
0
VERTEX
8
0
10
0.640000
20
1.930000
0
VERTEX
8
0
10
0.640000
20
1.970000
0
VERTEX
8
0
10
0.600000
20
1.970000
0
VERTEX
8
0
10
0.600000
20
1.930000
0
SEQEND
8
0
0
POLYLINE
8
0
66
1
40
0.016000
41
0.016000
0
VERTEX
8
0
10
0.600000
20
1.830000
0
VERTEX
8
0
10
0.640000
20
1.830000
0
VERTEX
8
0
10
0.640000
20
1.870000
0
VERTEX
8
0
10
0.600000
20
1.870000
0
VERTEX
8
0
10
0.600000
20
1.830000
0
SEQEND
8
0
0
POLYLINE
8
0
66
1
40
0.016000
41
0.016000
0
VERTEX
8
0
10
0.600000
20
1.730000
0
VERTEX
8
0
10
0.640000
20
1.730000
0
VERTEX
8
0
10
0.640000
20
1.770000
0
VERTEX
8
0
10
0.600000
20
1.770000
0
VERTEX
8
0
10
0.600000
20
1.730000
0
SEQEND
8
0
0
POLYLINE
8
0
66
1
40
0.016000
41
0.016000
0
VERTEX
8
0
10
0.600000
20
1.630000
0
VERTEX
8
0
10
0.640000
20
1.630000
0
VERTEX
8
0
10
0.640000
20
1.670000
0
VERTEX
8
0
10
0.600000
20
1.670000
0
VERTEX
8
0
10
0.600000
20
1.630000
0
SEQEND
8
0
0
POLYLINE
8
0
66
1
40
0.016000
41
0.016000
0
VERTEX
8
0
10
0.600000
20
1.530000
0
VERTEX
8
0
10
0.640000
20
1.530000
0
VERTEX
8
0
10
0.640000
20
1.570000
0
VERTEX
8
0
10
0.600000
20
1.570000
0
VERTEX
8
0
10
0.600000
20
1.530000
0
SEQEND
8
0
0
POLYLINE
8
0
66
1
40
0.016000
41
0.016000
0
VERTEX
8
0
10
0.600000
20
2.030000
0
VERTEX
8
0
10
0.640000
20
2.030000
0
VERTEX
8
0
10
0.640000
20
2.070000
0
VERTEX
8
0
10
0.600000
20
2.070000
0
VERTEX
8
0
10
0.600000
20
2.030000
0
SEQEND
8
0
0
POLYLINE
8
0
66
1
40
0.016000
41
0.016000
0
VERTEX
8
0
10
0.600000
20
1.440000
0
VERTEX
8
0
10
0.640000
20
1.440000
0
VERTEX
8
0
10
0.640000
20
1.480000
0
VERTEX
8
0
10
0.600000
20
1.480000
0
VERTEX
8
0
10
0.600000
20
1.440000
0
SEQEND
8
0
0
CIRCLE
8
0
10
-0.550000
20
1.700000
40
0.042426
0
CIRCLE
8
0
10
-0.560000
20
0.450000
40
0.042426
0
POLYLINE
8
0
66
1
40
0.016000
41
0.016000
0
VERTEX
8
0
10
0.360000
20
0.440000
0
VERTEX
8
0
10
0.260000
20
0.340000
0
VERTEX
8
0
10
-1.140000
20
0.340000
0
VERTEX
8
0
10
-1.240000
20
0.440000
0
VERTEX
8
0
10
0.360000
20
0.440000
0
SEQEND
8
0
0
TEXT
8
0
10
-0.310000
20
2.580000
40
0.120000
41
0.666667
50
-90.000000
1
www.TheEngineeringProjects.com
0
POLYLINE
8
0
66
1
40
0.010000
41
0.010000
0
VERTEX
8
0
10
-1.510000
20
1.280000
0
VERTEX
8
0
10
-1.430000
20
1.280000
0
VERTEX
8
0
10
-1.430000
20
1.860000
0
VERTEX
8
0
10
-1.510000
20
1.860000
0
VERTEX
8
0
10
-1.510000
20
1.280000
0
SEQEND
8
0
0
POLYLINE
8
0
66
1
40
0.016000
41
0.016000
0
VERTEX
8
0
10
-1.490000
20
1.700000
0
VERTEX
8
0
10
-1.450000
20
1.700000
0
VERTEX
8
0
10
-1.450000
20
1.740000
0
VERTEX
8
0
10
-1.490000
20
1.740000
0
VERTEX
8
0
10
-1.490000
20
1.700000
0
SEQEND
8
0
0
POLYLINE
8
0
66
1
40
0.016000
41
0.016000
0
VERTEX
8
0
10
-1.490000
20
1.500000
0
VERTEX
8
0
10
-1.450000
20
1.500000
0
VERTEX
8
0
10
-1.450000
20
1.540000
0
VERTEX
8
0
10
-1.490000
20
1.540000
0
VERTEX
8
0
10
-1.490000
20
1.500000
0
SEQEND
8
0
0
POLYLINE
8
0
66
1
40
0.016000
41
0.016000
0
VERTEX
8
0
10
-1.490000
20
1.300000
0
VERTEX
8
0
10
-1.450000
20
1.300000
0
VERTEX
8
0
10
-1.450000
20
1.340000
0
VERTEX
8
0
10
-1.490000
20
1.340000
0
VERTEX
8
0
10
-1.490000
20
1.300000
0
SEQEND
8
0
0
POLYLINE
8
0
66
1
40
0.016000
41
0.016000
0
VERTEX
8
0
10
-1.490000
20
1.400000
0
VERTEX
8
0
10
-1.450000
20
1.400000
0
VERTEX
8
0
10
-1.450000
20
1.440000
0
VERTEX
8
0
10
-1.490000
20
1.440000
0
VERTEX
8
0
10
-1.490000
20
1.400000
0
SEQEND
8
0
0
POLYLINE
8
0
66
1
40
0.016000
41
0.016000
0
VERTEX
8
0
10
-1.490000
20
1.600000
0
VERTEX
8
0
10
-1.450000
20
1.600000
0
VERTEX
8
0
10
-1.450000
20
1.640000
0
VERTEX
8
0
10
-1.490000
20
1.640000
0
VERTEX
8
0
10
-1.490000
20
1.600000
0
SEQEND
8
0
0
POLYLINE
8
0
66
1
40
0.016000
41
0.016000
0
VERTEX
8
0
10
-1.490000
20
1.800000
0
VERTEX
8
0
10
-1.450000
20
1.800000
0
VERTEX
8
0
10
-1.450000
20
1.840000
0
VERTEX
8
0
10
-1.490000
20
1.840000
0
VERTEX
8
0
10
-1.490000
20
1.800000
0
SEQEND
8
0
0
POLYLINE
8
0
66
1
40
0.010000
41
0.010000
0
VERTEX
8
0
10
0.580000
20
0.520000
0
VERTEX
8
0
10
0.660000
20
0.520000
0
VERTEX
8
0
10
0.660000
20
1.290000
0
VERTEX
8
0
10
0.580000
20
1.290000
0
VERTEX
8
0
10
0.580000
20
0.520000
0
SEQEND
8
0
0
POLYLINE
8
0
66
1
40
0.016000
41
0.016000
0
VERTEX
8
0
10
0.600000
20
1.230000
0
VERTEX
8
0
10
0.640000
20
1.230000
0
VERTEX
8
0
10
0.640000
20
1.270000
0
VERTEX
8
0
10
0.600000
20
1.270000
0
VERTEX
8
0
10
0.600000
20
1.230000
0
SEQEND
8
0
0
POLYLINE
8
0
66
1
40
0.016000
41
0.016000
0
VERTEX
8
0
10
0.600000
20
1.140000
0
VERTEX
8
0
10
0.640000
20
1.140000
0
VERTEX
8
0
10
0.640000
20
1.180000
0
VERTEX
8
0
10
0.600000
20
1.180000
0
VERTEX
8
0
10
0.600000
20
1.140000
0
SEQEND
8
0
0
POLYLINE
8
0
66
1
40
0.016000
41
0.016000
0
VERTEX
8
0
10
0.600000
20
1.040000
0
VERTEX
8
0
10
0.640000
20
1.040000
0
VERTEX
8
0
10
0.640000
20
1.080000
0
VERTEX
8
0
10
0.600000
20
1.080000
0
VERTEX
8
0
10
0.600000
20
1.040000
0
SEQEND
8
0
0
POLYLINE
8
0
66
1
40
0.016000
41
0.016000
0
VERTEX
8
0
10
0.600000
20
0.940000
0
VERTEX
8
0
10
0.640000
20
0.940000
0
VERTEX
8
0
10
0.640000
20
0.980000
0
VERTEX
8
0
10
0.600000
20
0.980000
0
VERTEX
8
0
10
0.600000
20
0.940000
0
SEQEND
8
0
0
POLYLINE
8
0
66
1
40
0.016000
41
0.016000
0
VERTEX
8
0
10
0.600000
20
0.840000
0
VERTEX
8
0
10
0.640000
20
0.840000
0
VERTEX
8
0
10
0.640000
20
0.880000
0
VERTEX
8
0
10
0.600000
20
0.880000
0
VERTEX
8
0
10
0.600000
20
0.840000
0
SEQEND
8
0
0
POLYLINE
8
0
66
1
40
0.016000
41
0.016000
0
VERTEX
8
0
10
0.600000
20
0.740000
0
VERTEX
8
0
10
0.640000
20
0.740000
0
VERTEX
8
0
10
0.640000
20
0.780000
0
VERTEX
8
0
10
0.600000
20
0.780000
0
VERTEX
8
0
10
0.600000
20
0.740000
0
SEQEND
8
0
0
POLYLINE
8
0
66
1
40
0.016000
41
0.016000
0
VERTEX
8
0
10
0.600000
20
0.640000
0
VERTEX
8
0
10
0.640000
20
0.640000
0
VERTEX
8
0
10
0.640000
20
0.680000
0
VERTEX
8
0
10
0.600000
20
0.680000
0
VERTEX
8
0
10
0.600000
20
0.640000
0
SEQEND
8
0
0
POLYLINE
8
0
66
1
40
0.016000
41
0.016000
0
VERTEX
8
0
10
0.600000
20
0.540000
0
VERTEX
8
0
10
0.640000
20
0.540000
0
VERTEX
8
0
10
0.640000
20
0.580000
0
VERTEX
8
0
10
0.600000
20
0.580000
0
VERTEX
8
0
10
0.600000
20
0.540000
0
SEQEND
8
0
0
POLYLINE
8
0
66
1
40
0.010000
41
0.010000
0
VERTEX
8
0
10
-1.510000
20
0.560000
0
VERTEX
8
0
10
-1.430000
20
0.560000
0
VERTEX
8
0
10
-1.430000
20
1.140000
0
VERTEX
8
0
10
-1.510000
20
1.140000
0
VERTEX
8
0
10
-1.510000
20
0.560000
0
SEQEND
8
0
0
POLYLINE
8
0
66
1
40
0.016000
41
0.016000
0
VERTEX
8
0
10
-1.490000
20
1.080000
0
VERTEX
8
0
10
-1.450000
20
1.080000
0
VERTEX
8
0
10
-1.450000
20
1.120000
0
VERTEX
8
0
10
-1.490000
20
1.120000
0
VERTEX
8
0
10
-1.490000
20
1.080000
0
SEQEND
8
0
0
POLYLINE
8
0
66
1
40
0.016000
41
0.016000
0
VERTEX
8
0
10
-1.490000
20
0.980000
0
VERTEX
8
0
10
-1.450000
20
0.980000
0
VERTEX
8
0
10
-1.450000
20
1.020000
0
VERTEX
8
0
10
-1.490000
20
1.020000
0
VERTEX
8
0
10
-1.490000
20
0.980000
0
SEQEND
8
0
0
POLYLINE
8
0
66
1
40
0.016000
41
0.016000
0
VERTEX
8
0
10
-1.490000
20
0.880000
0
VERTEX
8
0
10
-1.450000
20
0.880000
0
VERTEX
8
0
10
-1.450000
20
0.920000
0
VERTEX
8
0
10
-1.490000
20
0.920000
0
VERTEX
8
0
10
-1.490000
20
0.880000
0
SEQEND
8
0
0
POLYLINE
8
0
66
1
40
0.016000
41
0.016000
0
VERTEX
8
0
10
-1.490000
20
0.780000
0
VERTEX
8
0
10
-1.450000
20
0.780000
0
VERTEX
8
0
10
-1.450000
20
0.820000
0
VERTEX
8
0
10
-1.490000
20
0.820000
0
VERTEX
8
0
10
-1.490000
20
0.780000
0
SEQEND
8
0
0
POLYLINE
8
0
66
1
40
0.016000
41
0.016000
0
VERTEX
8
0
10
-1.490000
20
0.680000
0
VERTEX
8
0
10
-1.450000
20
0.680000
0
VERTEX
8
0
10
-1.450000
20
0.720000
0
VERTEX
8
0
10
-1.490000
20
0.720000
0
VERTEX
8
0
10
-1.490000
20
0.680000
0
SEQEND
8
0
0
POLYLINE
8
0
66
1
40
0.016000
41
0.016000
0
VERTEX
8
0
10
-1.490000
20
0.580000
0
VERTEX
8
0
10
-1.450000
20
0.580000
0
VERTEX
8
0
10
-1.450000
20
0.620000
0
VERTEX
8
0
10
-1.490000
20
0.620000
0
VERTEX
8
0
10
-1.490000
20
0.580000
0
SEQEND
8
0
0
POLYLINE
8
0
66
1
40
0.016000
41
0.016000
0
VERTEX
8
0
10
0.810000
20
0.550000
0
VERTEX
8
0
10
0.610000
20
0.550000
0
SEQEND
8
0
0
TEXT
8
0
10
0.000000
20
0.510000
40
0.080000
41
1.000000
1
PD0/RXD
0
TEXT
8
0
10
0.710000
20
0.560000
40
0.080000
41
1.000000
1
0
0
POLYLINE
8
0
66
1
40
0.016000
41
0.016000
0
VERTEX
8
0
10
0.810000
20
0.650000
0
VERTEX
8
0
10
0.610000
20
0.650000
0
SEQEND
8
0
0
TEXT
8
0
10
0.000000
20
0.610000
40
0.080000
41
1.000000
1
PD1/TXD
0
TEXT
8
0
10
0.710000
20
0.660000
40
0.080000
41
1.000000
1
1
0
POLYLINE
8
0
66
1
40
0.016000
41
0.016000
0
VERTEX
8
0
10
0.810000
20
0.750000
0
VERTEX
8
0
10
0.610000
20
0.750000
0
SEQEND
8
0
0
TEXT
8
0
10
-0.080000
20
0.710000
40
0.080000
41
1.000000
1
PD2/INT0
0
TEXT
8
0
10
0.710000
20
0.760000
40
0.080000
41
1.000000
1
2
0
POLYLINE
8
0
66
1
40
0.016000
41
0.016000
0
VERTEX
8
0
10
0.810000
20
0.850000
0
VERTEX
8
0
10
0.610000
20
0.850000
0
SEQEND
8
0
0
TEXT
8
0
10
-0.080000
20
0.810000
40
0.080000
41
1.000000
1
PD3/INT1
0
TEXT
8
0
10
0.710000
20
0.860000
40
0.080000
41
1.000000
1
3
0
POLYLINE
8
0
66
1
40
0.016000
41
0.016000
0
VERTEX
8
0
10
0.810000
20
0.950000
0
VERTEX
8
0
10
0.610000
20
0.950000
0
SEQEND
8
0
0
TEXT
8
0
10
-0.240000
20
0.910000
40
0.080000
41
1.000000
1
PD4/T0/XCK
0
TEXT
8
0
10
0.710000
20
0.960000
40
0.080000
41
1.000000
1
4
0
POLYLINE
8
0
66
1
40
0.016000
41
0.016000
0
VERTEX
8
0
10
0.810000
20
1.050000
0
VERTEX
8
0
10
0.610000
20
1.050000
0
SEQEND
8
0
0
TEXT
8
0
10
0.080000
20
1.010000
40
0.080000
41
1.000000
1
PD5/T1
0
TEXT
8
0
10
0.710000
20
1.060000
40
0.080000
41
1.000000
1
5
0
POLYLINE
8
0
66
1
40
0.016000
41
0.016000
0
VERTEX
8
0
10
0.810000
20
1.150000
0
VERTEX
8
0
10
0.610000
20
1.150000
0
SEQEND
8
0
0
TEXT
8
0
10
-0.080000
20
1.110000
40
0.080000
41
1.000000
1
PD6/AIN0
0
TEXT
8
0
10
0.710000
20
1.160000
40
0.080000
41
1.000000
1
6
0
POLYLINE
8
0
66
1
40
0.016000
41
0.016000
0
VERTEX
8
0
10
0.810000
20
1.250000
0
VERTEX
8
0
10
0.610000
20
1.250000
0
SEQEND
8
0
0
TEXT
8
0
10
-0.080000
20
1.210000
40
0.080000
41
1.000000
1
PD7/AIN1
0
TEXT
8
0
10
0.710000
20
1.260000
40
0.080000
41
1.000000
1
7
0
POLYLINE
8
0
66
1
40
0.016000
41
0.016000
0
VERTEX
8
0
10
0.810000
20
1.460000
0
VERTEX
8
0
10
0.610000
20
1.460000
0
SEQEND
8
0
0
TEXT
8
0
10
-0.480000
20
1.420000
40
0.080000
41
1.000000
1
PB0/ICP1/CLKO
0
TEXT
8
0
10
0.710000
20
1.470000
40
0.080000
41
1.000000
1
8
0
POLYLINE
8
0
66
1
40
0.016000
41
0.016000
0
VERTEX
8
0
10
0.810000
20
1.550000
0
VERTEX
8
0
10
0.610000
20
1.550000
0
SEQEND
8
0
0
TEXT
8
0
10
-0.080000
20
1.510000
40
0.080000
41
1.000000
1
PB1/OC1A
0
TEXT
8
0
10
0.710000
20
1.560000
40
0.080000
41
1.000000
1
9
0
POLYLINE
8
0
66
1
40
0.016000
41
0.016000
0
VERTEX
8
0
10
0.810000
20
1.650000
0
VERTEX
8
0
10
0.610000
20
1.650000
0
SEQEND
8
0
0
TEXT
8
0
10
-0.320000
20
1.610000
40
0.080000
41
1.000000
1
PB2/SS/OC1B
0
TEXT
8
0
10
0.710000
20
1.660000
40
0.080000
41
1.000000
1
10
0
POLYLINE
8
0
66
1
40
0.016000
41
0.016000
0
VERTEX
8
0
10
0.810000
20
1.750000
0
VERTEX
8
0
10
0.610000
20
1.750000
0
SEQEND
8
0
0
TEXT
8
0
10
-0.480000
20
1.710000
40
0.080000
41
1.000000
1
PB3/MOSI/OC2A
0
TEXT
8
0
10
0.710000
20
1.760000
40
0.080000
41
1.000000
1
11
0
POLYLINE
8
0
66
1
40
0.016000
41
0.016000
0
VERTEX
8
0
10
0.810000
20
1.850000
0
VERTEX
8
0
10
0.610000
20
1.850000
0
SEQEND
8
0
0
TEXT
8
0
10
-0.080000
20
1.810000
40
0.080000
41
1.000000
1
PB4/MISO
0
TEXT
8
0
10
0.710000
20
1.860000
40
0.080000
41
1.000000
1
12
0
POLYLINE
8
0
66
1
40
0.016000
41
0.016000
0
VERTEX
8
0
10
0.810000
20
1.950000
0
VERTEX
8
0
10
0.610000
20
1.950000
0
SEQEND
8
0
0
TEXT
8
0
10
0.000000
20
1.910000
40
0.080000
41
1.000000
1
PB5/SCK
0
TEXT
8
0
10
0.710000
20
1.960000
40
0.080000
41
1.000000
1
13
0
POLYLINE
8
0
66
1
40
0.016000
41
0.016000
0
VERTEX
8
0
10
0.810000
20
2.150000
0
VERTEX
8
0
10
0.610000
20
2.150000
0
SEQEND
8
0
0
TEXT
8
0
10
0.240000
20
2.110000
40
0.080000
41
1.000000
1
AREF
0
POLYLINE
8
0
66
1
40
0.016000
41
0.016000
0
VERTEX
8
0
10
-1.670000
20
0.600000
0
VERTEX
8
0
10
-1.470000
20
0.600000
0
SEQEND
8
0
0
TEXT
8
0
10
-1.420000
20
0.560000
40
0.080000
41
1.000000
1
PC5/ADC5/SCL
0
TEXT
8
0
10
-1.730000
20
0.610000
40
0.080000
41
1.000000
1
A5
0
POLYLINE
8
0
66
1
40
0.016000
41
0.016000
0
VERTEX
8
0
10
-1.670000
20
0.700000
0
VERTEX
8
0
10
-1.470000
20
0.700000
0
SEQEND
8
0
0
TEXT
8
0
10
-1.420000
20
0.660000
40
0.080000
41
1.000000
1
PC4/ADC4/SDA
0
TEXT
8
0
10
-1.730000
20
0.710000
40
0.080000
41
1.000000
1
A4
0
POLYLINE
8
0
66
1
40
0.016000
41
0.016000
0
VERTEX
8
0
10
-1.670000
20
0.800000
0
VERTEX
8
0
10
-1.470000
20
0.800000
0
SEQEND
8
0
0
TEXT
8
0
10
-1.420000
20
0.760000
40
0.080000
41
1.000000
1
PC3/ADC3
0
TEXT
8
0
10
-1.730000
20
0.810000
40
0.080000
41
1.000000
1
A3
0
POLYLINE
8
0
66
1
40
0.016000
41
0.016000
0
VERTEX
8
0
10
-1.670000
20
0.900000
0
VERTEX
8
0
10
-1.470000
20
0.900000
0
SEQEND
8
0
0
TEXT
8
0
10
-1.420000
20
0.860000
40
0.080000
41
1.000000
1
PC2/ADC2
0
TEXT
8
0
10
-1.730000
20
0.910000
40
0.080000
41
1.000000
1
A2
0
POLYLINE
8
0
66
1
40
0.016000
41
0.016000
0
VERTEX
8
0
10
-1.670000
20
1.000000
0
VERTEX
8
0
10
-1.470000
20
1.000000
0
SEQEND
8
0
0
TEXT
8
0
10
-1.420000
20
0.960000
40
0.080000
41
1.000000
1
PC1/ADC1
0
TEXT
8
0
10
-1.730000
20
1.010000
40
0.080000
41
1.000000
1
A1
0
POLYLINE
8
0
66
1
40
0.016000
41
0.016000
0
VERTEX
8
0
10
-1.670000
20
1.100000
0
VERTEX
8
0
10
-1.470000
20
1.100000
0
SEQEND
8
0
0
TEXT
8
0
10
-1.420000
20
1.060000
40
0.080000
41
1.000000
1
PC0/ADC0
0
TEXT
8
0
10
-1.730000
20
1.110000
40
0.080000
41
1.000000
1
A0
0
POLYLINE
8
0
66
1
40
0.016000
41
0.016000
0
VERTEX
8
0
10
-1.660000
20
1.820000
0
VERTEX
8
0
10
-1.460000
20
1.820000
0
SEQEND
8
0
0
TEXT
8
0
10
-1.410000
20
1.780000
40
0.080000
41
1.000000
1
RESET
0
POLYLINE
8
0
66
1
40
0.016000
41
0.016000
0
VERTEX
8
0
10
-1.660000
20
1.620000
0
VERTEX
8
0
10
-1.460000
20
1.620000
0
SEQEND
8
0
0
TEXT
8
0
10
-1.410000
20
1.580000
40
0.080000
41
1.000000
1
VCC
0
POLYLINE
8
0
66
1
40
0.016000
41
0.016000
0
VERTEX
8
0
10
-1.660000
20
1.520000
0
VERTEX
8
0
10
-1.460000
20
1.520000
0
SEQEND
8
0
0
TEXT
8
0
10
-1.410000
20
1.480000
40
0.080000
41
1.000000
1
GND
0
TEXT
8
0
10
-1.538000
20
2.923000
40
0.120000
41
0.666667
1
ARD1
0
TEXT
8
0
10
-1.538000
20
0.242000
40
0.080000
41
1.000000
1
ARDUINO UNO
0
POLYLINE
8
0
66
1
40
0.016000
41
0.016000
0
VERTEX
8
0
10
2.800000
20
1.650000
0
VERTEX
8
0
10
2.850000
20
1.650000
0
VERTEX
8
0
10
2.850000
20
1.950000
0
VERTEX
8
0
10
2.800000
20
1.950000
0
VERTEX
8
0
10
2.800000
20
1.650000
0
SEQEND
8
0
0
POLYLINE
8
0
66
1
40
0.016000
41
0.016000
0
VERTEX
8
0
10
2.950000
20
1.900000
0
VERTEX
8
0
10
3.050000
20
2.000000
0
SEQEND
8
0
0
POLYLINE
8
0
66
1
40
0.016000
41
0.016000
0
VERTEX
8
0
10
2.950000
20
1.800000
0
VERTEX
8
0
10
3.100000
20
1.800000
0
SEQEND
8
0
0
POLYLINE
8
0
66
1
40
0.016000
41
0.016000
0
VERTEX
8
0
10
2.950000
20
1.700000
0
VERTEX
8
0
10
3.050000
20
1.600000
0
SEQEND
8
0
0
POLYLINE
8
0
66
1
40
0.016000
41
0.016000
0
VERTEX
8
0
10
2.700000
20
1.900000
0
VERTEX
8
0
10
2.800000
20
1.900000
0
SEQEND
8
0
0
POLYLINE
8
0
66
1
40
0.016000
41
0.016000
0
VERTEX
8
0
10
2.700000
20
1.700000
0
VERTEX
8
0
10
2.800000
20
1.700000
0
SEQEND
8
0
0
TEXT
8
0
10
2.792000
20
2.023000
40
0.120000
41
0.666667
1
LS1
0
TEXT
8
0
10
2.792000
20
1.502000
40
0.080000
41
1.000000
1
SOUNDER
0
POLYLINE
8
0
66
1
40
0.016000
41
0.016000
0
VERTEX
8
0
10
2.900000
20
0.800000
0
VERTEX
8
0
10
2.900000
20
0.700000
0
SEQEND
8
0
0
POLYLINE
8
0
66
1
40
0.016000
41
0.016000
0
VERTEX
8
0
10
2.800000
20
0.700000
0
VERTEX
8
0
10
3.000000
20
0.700000
0
SEQEND
8
0
0
POLYLINE
8
0
66
1
40
0.016000
41
0.016000
0
VERTEX
8
0
10
2.850000
20
0.650000
0
VERTEX
8
0
10
2.950000
20
0.650000
0
SEQEND
8
0
0
POLYLINE
8
0
66
1
40
0.016000
41
0.016000
0
VERTEX
8
0
10
2.890000
20
0.600000
0
VERTEX
8
0
10
2.910000
20
0.600000
0
SEQEND
8
0
0
ENDSEC
0
EOF

